<svg width="33" height="33" viewBox="0 0 33 33" fill="none" xmlns="http://www.w3.org/2000/svg">
<g clip-path="url(#clip0_174_1052)">
<path d="M16.5 20.625C21.8157 20.625 26.125 16.3157 26.125 11C26.125 5.68426 21.8157 1.375 16.5 1.375C11.1843 1.375 6.875 5.68426 6.875 11C6.875 16.3157 11.1843 20.625 16.5 20.625Z" fill="#00F150"/>
<path d="M11.2888 19.0988L9.625 31.625L16.5 27.5L23.375 31.625L21.7113 19.085" fill="#00F150"/>
<path d="M11.2888 19.0988L9.625 31.625L16.5 27.5L23.375 31.625L21.7112 19.085M26.125 11C26.125 16.3157 21.8157 20.625 16.5 20.625C11.1843 20.625 6.875 16.3157 6.875 11C6.875 5.68426 11.1843 1.375 16.5 1.375C21.8157 1.375 26.125 5.68426 26.125 11Z" stroke="#00F150" stroke-width="4" stroke-linecap="round" stroke-linejoin="round"/>
<path d="M11.2888 19.0988L9.625 31.625L16.5 27.5L23.375 31.625L21.7112 19.085M26.125 11C26.125 16.3157 21.8157 20.625 16.5 20.625C11.1843 20.625 6.875 16.3157 6.875 11C6.875 5.68426 11.1843 1.375 16.5 1.375C21.8157 1.375 26.125 5.68426 26.125 11Z" stroke="black" stroke-opacity="0.2" stroke-width="4" stroke-linecap="round" stroke-linejoin="round"/>
</g>
<defs>
<clipPath id="clip0_174_1052">
<rect width="33" height="33" fill="white"/>
</clipPath>
</defs>
</svg>
