<svg width="39" height="39" viewBox="0 0 39 39" fill="none" xmlns="http://www.w3.org/2000/svg">
<path d="M36.375 18.5626C36.3815 21.0373 35.8033 23.4786 34.6875 25.6876C33.3646 28.3346 31.3308 30.561 28.814 32.1175C26.2972 33.6739 23.3967 34.4989 20.4375 34.5001C17.9627 34.5065 15.5215 33.9283 13.3125 32.8126L2.625 36.3751L6.1875 25.6876C5.07175 23.4786 4.49355 21.0373 4.5 18.5626C4.50115 15.6033 5.32615 12.7029 6.8826 10.1861C8.43905 7.66927 10.6655 5.63549 13.3125 4.31255C15.5215 3.1968 17.9627 2.6186 20.4375 2.62505H21.375C25.2832 2.84066 28.9745 4.49023 31.7421 7.25791C34.5098 10.0256 36.1594 13.7169 36.375 17.6251V18.5626Z" stroke="#4B5563" stroke-width="4" stroke-linecap="round" stroke-linejoin="round"/>
</svg>
