<svg width="38" height="38" viewBox="0 0 38 38" fill="none" xmlns="http://www.w3.org/2000/svg">
<path d="M28.1667 9.83325H28.1834M10.6667 2.33325H27.3334C31.9357 2.33325 35.6667 6.06421 35.6667 10.6666V27.3333C35.6667 31.9356 31.9357 35.6666 27.3334 35.6666H10.6667C6.06433 35.6666 2.33337 31.9356 2.33337 27.3333V10.6666C2.33337 6.06421 6.06433 2.33325 10.6667 2.33325ZM25.6667 17.9499C25.8724 19.337 25.6355 20.7536 24.9896 21.9983C24.3438 23.2429 23.3219 24.2523 22.0694 24.8827C20.8169 25.5131 19.3975 25.7326 18.013 25.5098C16.6286 25.287 15.3496 24.6334 14.3581 23.6419C13.3666 22.6503 12.7129 21.3714 12.4902 19.9869C12.2674 18.6025 12.4868 17.1831 13.1173 15.9305C13.7477 14.678 14.757 13.6562 16.0017 13.0103C17.2463 12.3645 18.663 12.1276 20.05 12.3333C21.4649 12.5431 22.7748 13.2024 23.7862 14.2138C24.7976 15.2252 25.4569 16.535 25.6667 17.9499Z" stroke="#006DE3" stroke-width="3.5" stroke-linecap="round" stroke-linejoin="round"/>
</svg>
