<svg width="27" height="26" viewBox="0 0 27 26" fill="none" xmlns="http://www.w3.org/2000/svg">
<path d="M15.75 15.9899V3.79159C15.75 3.07329 15.4537 2.38442 14.9262 1.8765C14.3988 1.36859 13.6834 1.08325 12.9375 1.08325C12.1916 1.08325 11.4762 1.36859 10.9488 1.8765C10.4213 2.38442 10.125 3.07329 10.125 3.79159V15.9899C9.22194 16.571 8.53686 17.4163 8.17096 18.401C7.80505 19.3857 7.77771 20.4576 8.09298 21.4585C8.40824 22.4593 9.0494 23.336 9.92175 23.959C10.7941 24.582 11.8514 24.9184 12.9375 24.9184C14.0236 24.9184 15.0809 24.582 15.9532 23.959C16.8256 23.336 17.4668 22.4593 17.782 21.4585C18.0973 20.4576 18.07 19.3857 17.704 18.401C17.3381 17.4163 16.6531 16.571 15.75 15.9899Z" stroke="#1E1E1E" stroke-width="2" stroke-linecap="round" stroke-linejoin="round"/>
</svg>
