<svg width="36" height="36" viewBox="0 0 36 36" fill="none" xmlns="http://www.w3.org/2000/svg">
<path fill-rule="evenodd" clip-rule="evenodd" d="M36 18C36 27.941 27.941 36 18 36C8.05887 36 0 27.941 0 18C0 8.05887 8.05887 0 18 0C27.941 0 36 8.05887 36 18ZM23.4 12.6C23.4 15.5824 20.9824 18 18 18C15.0176 18 12.6 15.5824 12.6 12.6C12.6 9.61767 15.0176 7.2 18 7.2C20.9824 7.2 23.4 9.61767 23.4 12.6ZM18 32.4C14.7274 32.4049 11.5516 31.2901 9 29.241V23.4C9 21.411 10.5966 19.8 12.6 19.8H23.4C25.389 19.8 27 21.393 27 23.4V29.241C24.534 31.2174 21.4056 32.4 18 32.4Z" fill="#4B5563"/>
</svg>
