<svg width="30" height="30" viewBox="0 0 30 30" fill="none" xmlns="http://www.w3.org/2000/svg">
<path d="M26.05 5.76258C25.4116 5.12384 24.6535 4.61714 23.8192 4.27144C22.9849 3.92574 22.0906 3.7478 21.1875 3.7478C20.2844 3.7478 19.3902 3.92574 18.5558 4.27144C17.7215 4.61714 16.9635 5.12384 16.325 5.76258L15 7.08758L13.675 5.76258C12.3854 4.47297 10.6363 3.74847 8.81253 3.74847C6.98874 3.74847 5.23964 4.47297 3.95003 5.76258C2.66041 7.0522 1.93591 8.80129 1.93591 10.6251C1.93591 12.4489 2.66041 14.198 3.95003 15.4876L15 26.5376L26.05 15.4876C26.6888 14.8491 27.1955 14.0911 27.5412 13.2568C27.8869 12.4225 28.0648 11.5282 28.0648 10.6251C28.0648 9.72197 27.8869 8.82771 27.5412 7.99339C27.1955 7.15907 26.6888 6.40103 26.05 5.76258Z" stroke="#202020" stroke-width="2.5" stroke-linecap="round" stroke-linejoin="round"/>
</svg>
